<svg xmlns="http://www.w3.org/2000/svg" viewBox="0 0 121 27"><defs><style>.cls-1{fill:none;stroke:#000;stroke-miterlimit:10;}</style></defs><title>Asset 1</title><g id="Layer_2" data-name="Layer 2"><g id="Layer_1-2" data-name="Layer 1"><rect class="cls-1" x="0.5" y="0.5" width="120" height="26" rx="12" ry="12"/><path d="M12.27,4.75h2.36l5.6,15.43H17.94l-1.61-4.62H10.27L8.6,20.18H6.45Zm3.47,9.11L13.36,7l-2.47,6.82Z"/><path d="M28,9.28a5,5,0,0,1,1.14,1.1V4.7H31V20.18H29.3V18.62a4.08,4.08,0,0,1-1.56,1.5,4.45,4.45,0,0,1-2.06.46A4.17,4.17,0,0,1,22.43,19a6.2,6.2,0,0,1-1.37-4.21,7.29,7.29,0,0,1,1.25-4.26,4.09,4.09,0,0,1,3.57-1.8A4,4,0,0,1,28,9.28Zm-4.22,8.44a2.67,2.67,0,0,0,2.44,1.22,2.57,2.57,0,0,0,2.15-1.13,5.35,5.35,0,0,0,.84-3.24,4.8,4.8,0,0,0-.87-3.16,2.7,2.7,0,0,0-2.14-1,2.82,2.82,0,0,0-2.3,1.09,5,5,0,0,0-.88,3.21A5.59,5.59,0,0,0,23.82,17.71Z"/><path d="M40,9.28a5,5,0,0,1,1.14,1.1V4.7H43V20.18h-1.7V18.62a4.08,4.08,0,0,1-1.56,1.5,4.45,4.45,0,0,1-2.06.46A4.17,4.17,0,0,1,34.4,19,6.2,6.2,0,0,1,33,14.79a7.29,7.29,0,0,1,1.25-4.26,4.09,4.09,0,0,1,3.57-1.8A4,4,0,0,1,40,9.28Zm-4.22,8.44a2.67,2.67,0,0,0,2.44,1.22,2.57,2.57,0,0,0,2.15-1.13,5.35,5.35,0,0,0,.84-3.24,4.8,4.8,0,0,0-.87-3.16,2.7,2.7,0,0,0-2.14-1,2.82,2.82,0,0,0-2.3,1.09A5,5,0,0,0,35,14.69,5.59,5.59,0,0,0,35.79,17.71Z"/><path d="M52.15,5.79h1.91V8.93h1.8v1.54h-1.8v7.34a.79.79,0,0,0,.4.79,1.7,1.7,0,0,0,.74.12h.29l.37,0v1.5a4.22,4.22,0,0,1-.68.14,6.44,6.44,0,0,1-.76,0,2.05,2.05,0,0,1-1.8-.68,3,3,0,0,1-.47-1.76V10.47H50.63V8.93h1.52Z"/><path d="M65.9,10.05a5.68,5.68,0,0,1,1.49,4.26,7.35,7.35,0,0,1-1.31,4.49A4.74,4.74,0,0,1,62,20.58,4.6,4.6,0,0,1,58.34,19,6.23,6.23,0,0,1,57,14.8a6.74,6.74,0,0,1,1.43-4.51A4.78,4.78,0,0,1,62.25,8.6,5,5,0,0,1,65.9,10.05Zm-1.17,7.48a7.14,7.14,0,0,0,.69-3.16,5.68,5.68,0,0,0-.5-2.56,2.8,2.8,0,0,0-2.72-1.55,2.68,2.68,0,0,0-2.49,1.32,6.18,6.18,0,0,0-.78,3.19,5.37,5.37,0,0,0,.78,3A2.73,2.73,0,0,0,62.18,19,2.57,2.57,0,0,0,64.73,17.53Z"/><path d="M86.86,5.87a5.47,5.47,0,0,1,1.78,3.51h-2A4.26,4.26,0,0,0,85.24,7a4.25,4.25,0,0,0-2.85-.87,4.53,4.53,0,0,0-3.62,1.6,7.4,7.4,0,0,0-1.38,4.92,7.24,7.24,0,0,0,1.24,4.4,4.31,4.31,0,0,0,3.71,1.69A3.9,3.9,0,0,0,85.81,17a6.85,6.85,0,0,0,.94-2.46h2A7,7,0,0,1,87,18.61a6.32,6.32,0,0,1-4.9,2A6.42,6.42,0,0,1,77.63,19q-2.38-2.15-2.38-6.65A8.57,8.57,0,0,1,77,6.7a6.49,6.49,0,0,1,5.33-2.38A6.21,6.21,0,0,1,86.86,5.87Z"/><path d="M97.26,13.37a1,1,0,0,0,.87-.54,1.68,1.68,0,0,0,.13-.73,1.55,1.55,0,0,0-.69-1.41,3.67,3.67,0,0,0-2-.44,2.49,2.49,0,0,0-2.1.8,2.67,2.67,0,0,0-.45,1.32H91.29a3.27,3.27,0,0,1,1.35-2.9,5.52,5.52,0,0,1,3-.82,6.12,6.12,0,0,1,3.22.76,2.57,2.57,0,0,1,1.23,2.35v6.48a.83.83,0,0,0,.12.47.58.58,0,0,0,.51.18l.28,0,.34,0v1.4a5.27,5.27,0,0,1-.67.16,4.91,4.91,0,0,1-.63,0,1.56,1.56,0,0,1-1.42-.69,2.68,2.68,0,0,1-.33-1A4.81,4.81,0,0,1,96.64,20a5.13,5.13,0,0,1-2.38.56,3.55,3.55,0,0,1-2.56-.95,3.15,3.15,0,0,1-1-2.38,3.06,3.06,0,0,1,1-2.42,4.66,4.66,0,0,1,2.56-1.06Zm-4,5.11A2.23,2.23,0,0,0,94.7,19a4.31,4.31,0,0,0,1.93-.46A2.59,2.59,0,0,0,98.21,16V14.46a3.22,3.22,0,0,1-.89.37,7.59,7.59,0,0,1-1.07.21l-1.14.15a4.44,4.44,0,0,0-1.55.43,1.67,1.67,0,0,0-.88,1.57A1.55,1.55,0,0,0,93.28,18.48Z"/><path d="M103.25,8.93H105v1.94a4.29,4.29,0,0,1,1.08-1.38,2.81,2.81,0,0,1,2-.81h.18l.43,0v2l-.31,0h-.31a2.7,2.7,0,0,0-2.2.92,3.21,3.21,0,0,0-.77,2.12v6.47h-1.89Z"/><path d="M110.74,5.79h1.91V8.93h1.8v1.54h-1.8v7.34a.79.79,0,0,0,.4.79,1.7,1.7,0,0,0,.74.12h.29l.37,0v1.5a4.22,4.22,0,0,1-.68.14,6.44,6.44,0,0,1-.76,0,2.05,2.05,0,0,1-1.8-.68,3,3,0,0,1-.47-1.76V10.47h-1.52V8.93h1.52Z"/></g></g></svg>