<svg xmlns="http://www.w3.org/2000/svg" viewBox="0 0 1036.09 822.88"><title>LungA_2020_Ornamental</title><g id="Layer_2" data-name="Layer 2"><g id="Layer_1-2" data-name="Layer 1"><polygon points="181.82 253.74 39.95 253.74 39.95 2.36 0 2.36 0 292.47 181.82 292.47 181.82 253.74"/><path d="M343.38,275.87l.34,16.6h33.81V119.57h-40V230.23a39.45,39.45,0,0,1-12.82,24.38q-10.79,9.85-31.71,9.85-22.27,0-33.06-11.58T249.2,224.69V119.57h-40V224.69a98.29,98.29,0,0,0,4.07,28.18,65.81,65.81,0,0,0,13,24.2,67.17,67.17,0,0,0,22.87,17.12q13.89,6.56,33.53,6.57Q321,300.76,343.38,275.87Z"/><path d="M586.1,292.47V187.35a94.79,94.79,0,0,0-4.23-28.18,69.56,69.56,0,0,0-13-24.2A65.22,65.22,0,0,0,546,117.85q-14.05-6.57-33.69-6.57-38.27,0-60.61,24.9v-16.6H417.82V292.47h40V181.82a39.71,39.71,0,0,1,12.7-24.38q10.66-9.85,31.66-9.85,22.35,0,33.18,11.58t10.84,28.18V292.47Z"/><path d="M781.29,385.14a242.55,242.55,0,0,0,4.58-51.87V119.57H753.09l-1.37,16.6a74.85,74.85,0,0,0-26.59-18.5q-15.41-6.39-34.72-6.4-19.65,0-33.87,6.57A68.26,68.26,0,0,0,633.17,135a66.77,66.77,0,0,0-13.38,24.2,94.64,94.64,0,0,0-4.23,28.18v37.34a94.61,94.61,0,0,0,4.23,28.18,66.57,66.57,0,0,0,13.38,24.2,68.13,68.13,0,0,0,23.37,17.12q14.22,6.56,33.86,6.57a112.59,112.59,0,0,0,31.49-4.32A54.39,54.39,0,0,0,747.62,280v53.25a206,206,0,0,1-2.82,35.44Q742,384.79,736,395.85l-63.32-70.19q-12.53-13.83-26.24-19.19a53.74,53.74,0,0,0-51,5.19A60,60,0,0,0,577,331.37a72.64,72.64,0,0,0-9.31,28.18q-2,15.9,3.39,33.89a97.22,97.22,0,0,0,21.5,38.73,118.8,118.8,0,0,0,34.54,26.45,122.8,122.8,0,0,0,41.31,12.45,101.53,101.53,0,0,0,42.15-3.63A109.33,109.33,0,0,0,739,453.95l23.75,25.93,27.81-23.51-26.11-29Q776.37,409,781.29,385.14ZM745.92,224.69a36.09,36.09,0,0,1-3.21,15,38.3,38.3,0,0,1-9.28,12.62,46.16,46.16,0,0,1-14.51,8.82A51.56,51.56,0,0,1,700,264.46q-21.92,0-33.22-11.58a38.85,38.85,0,0,1-11.3-28.18V187.35a38.86,38.86,0,0,1,11.3-28.18q11.3-11.58,33.22-11.58a51.68,51.68,0,0,1,18.89,3.29,46.31,46.31,0,0,1,14.51,8.82,37.9,37.9,0,0,1,9.28,12.79,36.53,36.53,0,0,1,3.21,14.87Zm-39.11,204a34.08,34.08,0,0,1-6.94,2.76,74.3,74.3,0,0,1-29.46,2.42,84.18,84.18,0,0,1-28.61-8.47A82.27,82.27,0,0,1,618.44,408a60.89,60.89,0,0,1-14.05-24.2q-4.06-13.49-1-24t10.16-15.39q7.11-4.85,17.1-2.6t19.81,14.35l62.64,69.16Q710,427,706.81,428.71Z"/><path d="M882.36,209.48h90.4l24,83h39.28L951.44,2.36H908.78L817.35,292.47h39.28ZM929.09,59.41l33.18,114.45H893.2Z"/><path d="M390.4,404.19c-63.29,0-98.52,40.87-98.52,100.26v61.84c0,59.39,35.23,100.26,98.52,100.26,63.63,0,97.49-40.87,97.49-100.26V504.45C487.89,445.06,454,404.19,390.4,404.19Zm56.79,160.7c0,40.18-15.74,65-56.79,65s-57.81-24.8-57.81-65v-59c0-40.18,16.76-65,57.81-65s56.79,24.8,56.79,65Z"/><path d="M134.43,577.17c36.6-30.39,58.84-54.85,58.84-90.83,0-38.78-26.68-80-90-80-66.71,0-93.39,43.67-98.18,85.94H45.83c4.79-31.44,21.55-49.61,56.44-49.61,38.66,0,50.29,24.45,50.29,44,0,25.85-19.84,41.57-44.81,63.23L12,632.37v31.79H194V626.78H74.22Z"/><path d="M720.43,735.17c36.6-30.39,58.84-54.85,58.84-90.83,0-38.78-26.68-80-90-80-66.71,0-93.39,43.67-98.18,85.94h40.71c4.79-31.44,21.55-49.61,56.44-49.61,38.66,0,50.29,24.45,50.29,44,0,25.85-19.84,41.57-44.81,63.23L598,790.37v31.79H780V784.78H660.22Z"/><path d="M933.59,403.39c-63.29,0-98.52,40.87-98.52,100.26v61.84c0,59.39,35.23,100.26,98.52,100.26,63.63,0,97.49-40.87,97.49-100.26V503.66C1031.09,444.27,997.22,403.39,933.59,403.39Zm56.79,160.7c0,40.18-15.74,65-56.79,65s-57.81-24.8-57.81-65v-59c0-40.18,16.76-65,57.81-65s56.79,24.8,56.79,65Z"/><path d="M378.31,363.28v5.35H351.7v-4.55l14-11.8c3.65-3.1,6.55-5.35,6.55-9.05,0-2.8-1.7-6.3-7.35-6.3-5.1,0-7.55,2.6-8.25,7.1h-6c.7-6.05,4.6-12.3,14.35-12.3,9.25,0,13.15,5.9,13.15,11.45,0,5.15-3.25,8.65-8.6,13l-8.8,7.1Z"/><path d="M385.15,354.93v-8.85c0-8.5,5.15-14.35,14.4-14.35s14.25,5.85,14.25,14.35v8.85c0,8.5-5,14.35-14.25,14.35S385.15,363.43,385.15,354.93Zm22.7-.2v-8.45c0-5.75-2.3-9.3-8.3-9.3s-8.45,3.55-8.45,9.3v8.45c0,5.75,2.45,9.3,8.45,9.3S407.85,360.48,407.85,354.73Z"/><path d="M432.15,362c0-5.5,4.75-7.9,10.25-8.3l7.5-.55v-1.55c0-2.35-3.2-3.8-6.35-3.8-3,0-5.75,1.25-6.2,3.8H431.8c.5-4.5,4.7-8.65,11.8-8.65s12.15,4,12.15,8.35v17.3H450.6l-.2-2.9c-2,2.15-5.8,3.55-9.55,3.55C436.2,369.28,432.15,367.13,432.15,362Zm17.75-.8v-3.3l-6.4.5c-3.75.3-5.5,1.3-5.5,3.35s1.55,2.5,3.55,2.5C444.55,364.28,448.2,363,449.9,361.23ZM451,331.38l-5.35,8.75h-5.15l4.5-8.75Z"/><path d="M462.1,343.63h5v4.05a6.74,6.74,0,0,1,6.65-4.4c.55,0,1.9,0,2.75.1v5.25c-.7,0-1.65-.15-2.55-.15-4.1,0-6,2-6,5.6v14.65H462.1Z"/><path d="M480.05,362c0-5.5,4.75-7.9,10.25-8.3l7.5-.55v-1.55c0-2.35-3.2-3.8-6.35-3.8-3,0-5.75,1.25-6.2,3.8H479.7c.5-4.5,4.7-8.65,11.8-8.65s12.15,4,12.15,8.35v17.3H498.5l-.2-2.9c-2,2.15-5.8,3.55-9.55,3.55C484.1,369.28,480.05,367.13,480.05,362Zm17.75-.8v-3.3l-6.4.5c-3.75.3-5.5,1.3-5.5,3.35s1.55,2.5,3.55,2.5C492.45,364.28,496.1,363,497.8,361.23Z"/><path d="M511.15,362.28h6.45v6.35h-6.45Zm.2-18v-12h6.05v12l-1.5,13.75h-3.05Z"/><path d="M142.31,65.87v5.35H115.7V66.67l14-11.8c3.65-3.1,6.55-5.35,6.55-9.05,0-2.8-1.7-6.3-7.35-6.3-5.1,0-7.55,2.6-8.25,7.1h-6c.7-6.05,4.6-12.3,14.35-12.3,9.25,0,13.15,5.9,13.15,11.45,0,5.15-3.25,8.65-8.6,13l-8.8,7.1Z"/><path d="M149.15,57.52V48.67c0-8.5,5.15-14.35,14.4-14.35s14.25,5.85,14.25,14.35v8.85c0,8.5-5,14.35-14.25,14.35S149.15,66,149.15,57.52Zm22.7-.2V48.87c0-5.75-2.3-9.3-8.3-9.3s-8.45,3.55-8.45,9.3v8.45c0,5.75,2.45,9.3,8.45,9.3S171.85,63.07,171.85,57.32Z"/><path d="M196.15,64.62c0-5.5,4.75-7.9,10.25-8.3l7.5-.55V54.22c0-2.35-3.2-3.8-6.35-3.8-3,0-5.75,1.25-6.2,3.8H195.8c.5-4.5,4.7-8.65,11.8-8.65s12.15,4,12.15,8.35v17.3H214.6l-.2-2.9c-2,2.15-5.8,3.55-9.55,3.55C200.2,71.88,196.15,69.72,196.15,64.62Zm17.75-.8v-3.3l-6.4.5c-3.75.3-5.5,1.3-5.5,3.35s1.55,2.5,3.55,2.5C208.55,66.87,212.2,65.57,213.9,63.82ZM215,34l-5.35,8.75h-5.15L209,34Z"/><path d="M226.1,46.22h5v4.05a6.74,6.74,0,0,1,6.65-4.4c.55,0,1.9,0,2.75.1v5.25c-.7,0-1.65-.15-2.55-.15-4.1,0-6,2-6,5.6V71.32H226.1Z"/><path d="M244.05,64.62c0-5.5,4.75-7.9,10.25-8.3l7.5-.55V54.22c0-2.35-3.2-3.8-6.35-3.8-3,0-5.75,1.25-6.2,3.8H243.7c.5-4.5,4.7-8.65,11.8-8.65s12.15,4,12.15,8.35v17.3H262.5l-.2-2.9c-2,2.15-5.8,3.55-9.55,3.55C248.1,71.88,244.05,69.72,244.05,64.62Zm17.75-.8v-3.3l-6.4.5c-3.75.3-5.5,1.3-5.5,3.35s1.55,2.5,3.55,2.5C256.45,66.87,260.1,65.57,261.8,63.82Z"/><path d="M275.15,64.87h6.45v6.35h-6.45Zm.2-18V35h6.05v12l-1.5,13.75h-3.05Z"/><path d="M709.28,31.73v5.35L682.66,37V32.46l14-11.76c3.66-3.09,6.56-5.33,6.57-9,0-2.8-1.68-6.3-7.33-6.32-5.1,0-7.56,2.58-8.27,7.08l-6,0c.72-6,4.63-12.29,14.38-12.26,9.25,0,13.14,5.93,13.12,11.49,0,5.15-3.27,8.64-8.63,13l-8.82,7.08Z"/><path d="M716.15,23.39l0-8.85C716.19,6,721.36.21,730.61.23s14.24,5.89,14.21,14.39l0,8.85c0,8.5-5,14.34-14.29,14.31S716.13,31.89,716.15,23.39Zm22.7-.14,0-8.45c0-5.75-2.28-9.31-8.28-9.32s-8.46,3.53-8.47,9.28l0,8.45c0,5.75,2.43,9.31,8.43,9.32S738.84,29,738.85,23.25Z"/><path d="M763.13,30.62c0-5.5,4.77-7.89,10.27-8.27l7.5-.53V20.26c0-2.35-3.19-3.81-6.34-3.82-3,0-5.75,1.23-6.21,3.78h-5.55c.51-4.5,4.72-8.64,11.82-8.62s12.14,4.08,12.13,8.38l0,17.3h-5.15l-.19-2.9c-2.06,2.15-5.81,3.54-9.56,3.53C767.16,37.88,763.12,35.72,763.13,30.62Zm17.75-.75v-3.3l-6.4.48c-3.75.29-5.5,1.29-5.51,3.33s1.54,2.5,3.54,2.51C775.52,32.9,779.18,31.61,780.88,29.86ZM782,0l-5.37,8.74h-5.15L776,0Z"/><path d="M793.13,12.29h5v4.05A6.75,6.75,0,0,1,804.73,12c.55,0,1.9.05,2.75.11v5.25c-.7-.05-1.65-.16-2.55-.16-4.1,0-6,1.93-6,5.58l0,14.65-5.85,0Z"/><path d="M811,30.74c0-5.5,4.77-7.89,10.27-8.27l7.5-.53V20.39c0-2.35-3.19-3.81-6.34-3.82-3,0-5.75,1.24-6.21,3.78h-5.55c.51-4.5,4.72-8.64,11.82-8.62s12.14,4.08,12.13,8.38l0,17.3h-5.15l-.19-2.9c-2.06,2.14-5.81,3.54-9.56,3.53C815.06,38,811,35.84,811,30.74ZM828.78,30v-3.3l-6.4.48c-3.75.29-5.5,1.29-5.51,3.33s1.54,2.5,3.54,2.51C823.42,33,827.08,31.74,828.78,30Z"/><path d="M842.13,31.08l6.45,0,0,6.35-6.45,0Zm.25-18,0-12,6.05,0,0,12-1.54,13.75h-3.05Z"/><path d="M187.31,730.87v5.35H160.7v-4.55l14-11.8c3.65-3.1,6.55-5.35,6.55-9.05,0-2.8-1.7-6.3-7.35-6.3-5.1,0-7.55,2.6-8.25,7.1h-6c.7-6.05,4.6-12.3,14.35-12.3,9.25,0,13.15,5.9,13.15,11.45,0,5.15-3.25,8.65-8.6,13l-8.8,7.1Z"/><path d="M194.15,722.52v-8.85c0-8.5,5.15-14.35,14.4-14.35s14.25,5.85,14.25,14.35v8.85c0,8.5-5,14.35-14.25,14.35S194.15,731,194.15,722.52Zm22.7-.2v-8.45c0-5.75-2.3-9.3-8.3-9.3s-8.45,3.55-8.45,9.3v8.45c0,5.75,2.45,9.3,8.45,9.3S216.85,728.07,216.85,722.32Z"/><path d="M241.15,729.62c0-5.5,4.75-7.9,10.25-8.3l7.5-.55v-1.55c0-2.35-3.2-3.8-6.35-3.8-3,0-5.75,1.25-6.2,3.8H240.8c.5-4.5,4.7-8.65,11.8-8.65s12.15,4,12.15,8.35v17.3H259.6l-.2-2.9c-2,2.15-5.8,3.55-9.55,3.55C245.2,736.88,241.15,734.72,241.15,729.62Zm17.75-.8v-3.3l-6.4.5c-3.75.3-5.5,1.3-5.5,3.35s1.55,2.5,3.55,2.5C253.55,731.87,257.2,730.57,258.9,728.82ZM260,699l-5.35,8.75h-5.15L254,699Z"/><path d="M271.1,711.22h5v4.05a6.74,6.74,0,0,1,6.65-4.4c.55,0,1.9,0,2.75.1v5.25c-.7,0-1.65-.15-2.55-.15-4.1,0-6,2-6,5.6v14.65H271.1Z"/><path d="M289.05,729.62c0-5.5,4.75-7.9,10.25-8.3l7.5-.55v-1.55c0-2.35-3.2-3.8-6.35-3.8-3,0-5.75,1.25-6.2,3.8H288.7c.5-4.5,4.7-8.65,11.8-8.65s12.15,4,12.15,8.35v17.3H307.5l-.2-2.9c-2,2.15-5.8,3.55-9.55,3.55C293.1,736.88,289.05,734.72,289.05,729.62Zm17.75-.8v-3.3l-6.4.5c-3.75.3-5.5,1.3-5.5,3.35s1.55,2.5,3.55,2.5C301.45,731.87,305.1,730.57,306.8,728.82Z"/><path d="M320.15,729.87h6.45v6.35h-6.45Zm.2-18V700h6.05v12l-1.5,13.75h-3.05Z"/><path d="M894.31,816.87v5.35H867.7v-4.55l14-11.8c3.65-3.1,6.55-5.35,6.55-9.05,0-2.8-1.7-6.3-7.35-6.3-5.1,0-7.55,2.6-8.25,7.1h-6c.7-6.05,4.6-12.3,14.35-12.3,9.25,0,13.15,5.9,13.15,11.45,0,5.15-3.25,8.65-8.6,13l-8.8,7.1Z"/><path d="M901.15,808.52v-8.85c0-8.5,5.15-14.35,14.4-14.35s14.25,5.85,14.25,14.35v8.85c0,8.5-5,14.35-14.25,14.35S901.15,817,901.15,808.52Zm22.7-.2v-8.45c0-5.75-2.3-9.3-8.3-9.3s-8.45,3.55-8.45,9.3v8.45c0,5.75,2.45,9.3,8.45,9.3S923.85,814.07,923.85,808.32Z"/><path d="M948.15,815.62c0-5.5,4.75-7.9,10.25-8.3l7.5-.55v-1.55c0-2.35-3.2-3.8-6.35-3.8-3,0-5.75,1.25-6.2,3.8H947.8c.5-4.5,4.7-8.65,11.8-8.65s12.15,4,12.15,8.35v17.3H966.6l-.2-2.9c-2,2.15-5.8,3.55-9.55,3.55C952.2,822.88,948.15,820.72,948.15,815.62Zm17.75-.8v-3.3l-6.4.5c-3.75.3-5.5,1.3-5.5,3.35s1.55,2.5,3.55,2.5C960.55,817.87,964.2,816.57,965.9,814.82ZM967,785l-5.35,8.75h-5.15L961,785Z"/><path d="M978.1,797.22h5v4.05a6.74,6.74,0,0,1,6.65-4.4c.55,0,1.9,0,2.75.1v5.25c-.7,0-1.65-.15-2.55-.15-4.1,0-6,2-6,5.6v14.65H978.1Z"/><path d="M996.05,815.62c0-5.5,4.75-7.9,10.25-8.3l7.5-.55v-1.55c0-2.35-3.2-3.8-6.35-3.8-3,0-5.75,1.25-6.2,3.8H995.7c.5-4.5,4.7-8.65,11.8-8.65s12.15,4,12.15,8.35v17.3h-5.15l-.2-2.9c-2,2.15-5.8,3.55-9.55,3.55C1000.1,822.88,996.05,820.72,996.05,815.62Zm17.75-.8v-3.3l-6.4.5c-3.75.3-5.5,1.3-5.5,3.35s1.55,2.5,3.55,2.5C1008.45,817.87,1012.1,816.57,1013.8,814.82Z"/><path d="M1027.15,815.87h6.45v6.35h-6.45Zm.2-18V786h6.05v12l-1.5,13.75h-3.05Z"/></g></g></svg>