<svg xmlns="http://www.w3.org/2000/svg" viewBox="0 0 1042.61 819.8"><title>Asset 1</title><g id="Layer_2" data-name="Layer 2"><g id="Layer_1-2" data-name="Layer 1"><polyline points="861.48 497.1 929.04 456.5 928.35 621.39 854.81 621.09 854.65 658.47 1042.45 659.25 1042.61 621.87 969.06 621.56 969.96 405.67 939.85 405.54 861.66 453.08 861.48 497.1"/><polygon points="181.82 251.38 39.95 251.38 39.95 0 0 0 0 290.11 181.82 290.11 181.82 251.38"/><path d="M343.38,273.51l.34,16.6h33.81V117.22h-40V227.87a39.45,39.45,0,0,1-12.82,24.38Q314,262.1,293.05,262.1q-22.27,0-33.06-11.58T249.2,222.34V117.22h-40V222.34a98.29,98.29,0,0,0,4.07,28.18,65.81,65.81,0,0,0,13,24.2,67.17,67.17,0,0,0,22.87,17.12q13.89,6.56,33.53,6.57Q321,298.41,343.38,273.51Z"/><path d="M586.1,290.11V185a94.79,94.79,0,0,0-4.23-28.18,69.56,69.56,0,0,0-13-24.2A65.22,65.22,0,0,0,546,115.49q-14.05-6.57-33.69-6.57-38.27,0-60.61,24.9v-16.6H417.82V290.11h40V179.46a39.71,39.71,0,0,1,12.7-24.38q10.66-9.85,31.66-9.85,22.35,0,33.18,11.58T546.15,185V290.11Z"/><path d="M781.29,382.78a242.55,242.55,0,0,0,4.58-51.87V117.22H753.09l-1.37,16.6a74.85,74.85,0,0,0-26.59-18.5q-15.41-6.39-34.72-6.4-19.65,0-33.87,6.57a68.26,68.26,0,0,0-23.38,17.12,66.77,66.77,0,0,0-13.38,24.2A94.64,94.64,0,0,0,615.56,185v37.34a94.61,94.61,0,0,0,4.23,28.18,66.57,66.57,0,0,0,13.38,24.2,68.13,68.13,0,0,0,23.37,17.12q14.22,6.56,33.86,6.57a112.59,112.59,0,0,0,31.49-4.32,54.39,54.39,0,0,0,25.74-16.43v53.25a206,206,0,0,1-2.82,35.44Q742,382.44,736,393.5l-63.32-70.19q-12.53-13.83-26.24-19.19a53.74,53.74,0,0,0-51,5.19A60,60,0,0,0,577,329a72.64,72.64,0,0,0-9.31,28.18q-2,15.9,3.39,33.89a97.22,97.22,0,0,0,21.5,38.73,118.8,118.8,0,0,0,34.54,26.45,122.8,122.8,0,0,0,41.31,12.45,101.53,101.53,0,0,0,42.15-3.63A109.33,109.33,0,0,0,739,451.59l23.75,25.93L790.61,454l-26.11-29Q776.37,406.63,781.29,382.78ZM745.92,222.34a36.09,36.09,0,0,1-3.21,15A38.3,38.3,0,0,1,733.43,250a46.16,46.16,0,0,1-14.51,8.82A51.56,51.56,0,0,1,700,262.1q-21.92,0-33.22-11.58a38.85,38.85,0,0,1-11.3-28.18V185a38.86,38.86,0,0,1,11.3-28.18q11.3-11.58,33.22-11.58a51.68,51.68,0,0,1,18.89,3.29,46.31,46.31,0,0,1,14.51,8.82,37.9,37.9,0,0,1,9.28,12.79A36.53,36.53,0,0,1,745.92,185Zm-39.11,204a34.08,34.08,0,0,1-6.94,2.76,74.3,74.3,0,0,1-29.46,2.42,84.18,84.18,0,0,1-28.61-8.47,82.27,82.27,0,0,1-23.36-17.46,60.89,60.89,0,0,1-14.05-24.2q-4.06-13.49-1-24T613.53,342q7.11-4.85,17.1-2.6t19.81,14.35l62.64,69.16Q710,424.62,706.81,426.35Z"/><path d="M882.36,207.13h90.4l24,83h39.28L951.44,0H908.78L817.35,290.11h39.28ZM929.09,57.05l33.18,114.45H893.2Z"/><path d="M391.4,401.83c-63.29,0-98.52,40.87-98.52,100.26v61.84c0,59.39,35.23,100.26,98.52,100.26,63.63,0,97.49-40.87,97.49-100.26V502.1C488.89,442.71,455,401.83,391.4,401.83Zm56.79,160.7c0,40.18-15.74,65-56.79,65s-57.81-24.8-57.81-65v-59c0-40.18,16.76-65,57.81-65s56.79,24.8,56.79,65Z"/><path d="M134.43,574.81C171,544.42,193.27,520,193.27,484c0-38.78-26.68-80-90-80-66.71,0-93.39,43.67-98.18,85.94H45.83c4.79-31.44,21.55-49.61,56.44-49.61,38.66,0,50.29,24.45,50.29,44,0,25.85-19.84,41.57-44.81,63.23L12,630V661.8H194V624.42H74.22Z"/><path d="M770,819.8V782.42H650.22l60.21-49.61C747,702.42,769.27,678,769.27,642c0-38.78-26.68-80-90-80-66.71,0-93.39,43.67-98.18,85.94h40.71c4.79-31.44,21.55-49.61,56.44-49.61,38.66,0,50.29,24.45,50.29,44,0,25.85-19.84,41.57-44.81,63.23L588,788V819.8"/></g></g></svg>