<svg xmlns="http://www.w3.org/2000/svg" viewBox="0 0 270 112.42"><title>Asset 1</title><g id="Layer_2" data-name="Layer 2"><g id="Layer_1-2" data-name="Layer 1"><path d="M0,0V112.42H270V0ZM85.08,89.78H74.19V41.07l-17,32.32H48.36l-17-32.32V89.78H20.44V23.4H33.16L52.76,61.49,72.35,23.4H85.08ZM142.95,71h-34.7c.37,6.59,4,11.26,12.45,11.26,5.77,0,9.34-2.2,10.9-5.77h11C140.47,83.74,134.34,91,120.7,91c-17.21,0-22.8-11.54-22.8-20.51V63.32c0-8.88,5.59-20.51,22.8-20.51,17,0,22.25,11.35,22.25,20.05Zm56,18.77H188.27V63.32c0-7.33-3.66-11.45-11.45-11.45-8.42,0-12.45,4.85-12.45,12.73V89.78H153.66V44H164.1l.09,6.32c3-4.4,7.87-7.51,15.47-7.51,12.82,0,19.32,9,19.32,18.77Zm55.76,0H244.3l-.09-6.32c-3,4.4-7.88,7.51-15.47,7.51-12.82,0-19.32-9-19.32-18.77V44h10.71V70.46c0,7.33,3.66,11.45,11.45,11.45C240,81.91,244,77.05,244,69.18V44h10.71Z"/><path d="M120.7,51.51c-8.42,0-12.18,4.58-12.45,11.35h24.45C132.69,56.09,129.21,51.51,120.7,51.51Z"/></g></g></svg>